<?xml version="1.0" encoding="utf-8"?>
<!-- Generator: Adobe Illustrator 16.0.4, SVG Export Plug-In . SVG Version: 6.00 Build 0)  -->
<!DOCTYPE svg PUBLIC "-//W3C//DTD SVG 1.1//EN" "http://www.w3.org/Graphics/SVG/1.1/DTD/svg11.dtd">
<svg version="1.1" id="npcChalice" xmlns="http://www.w3.org/2000/svg" xmlns:xlink="http://www.w3.org/1999/xlink" x="0px" y="0px"
	 width="25px" height="55.258px" viewBox="80.479 177.885 25 55.258" enable-background="new 80.479 177.885 25 55.258"
	 xml:space="preserve">
<path fill="#00ff00" d="M92.979,233.143h8.383v-9.027h-1.091c0,0,0.595-2.183-0.942-4.266c0-1.488-0.249-2.133-1.042-3.324
	c-0.794-1.19-4.762-8.185-3.423-9.871c1.339-1.686,1.687-1.835,1.687-2.629c0.645,0,1.24-0.694,0.744-1.438c0-0.793,0-1.091,0-1.091
	s0.645-1.637-0.546-1.637c0,0,0-1.141-1.29-1.24c-0.645-0.694-1.438-2.282-0.595-3.224c0.595,0.05,10.516-2.48,10.615-16.221
	c0,0-5.093-1.289-12.5-1.289l0,0c-7.407,0-12.5,1.289-12.5,1.289c0.099,13.741,10.02,16.271,10.615,16.221
	c0.843,0.942,0.05,2.53-0.595,3.224c-1.29,0.099-1.29,1.24-1.29,1.24c-1.19,0-0.546,1.637-0.546,1.637s0,0.298,0,1.091
	c-0.496,0.744,0.1,1.438,0.744,1.438c0,0.794,0.348,0.943,1.687,2.629c1.339,1.687-2.629,8.681-3.422,9.871
	c-0.794,1.191-1.042,1.836-1.042,3.324c-1.538,2.083-0.942,4.266-0.942,4.266h-1.091v9.027H92.979L92.979,233.143z"/>
</svg>
