<?xml version="1.0" encoding="utf-8"?>
<!-- Generator: Adobe Illustrator 16.0.4, SVG Export Plug-In . SVG Version: 6.00 Build 0)  -->
<!DOCTYPE svg PUBLIC "-//W3C//DTD SVG 1.1//EN" "http://www.w3.org/Graphics/SVG/1.1/DTD/svg11.dtd">
<svg version="1.1" id="npcLogo" xmlns="http://www.w3.org/2000/svg" xmlns:xlink="http://www.w3.org/1999/xlink" x="0px" y="0px"
	 width="80px" height="45.914px" viewBox="12.5 7.173 80 45.914" enable-background="new 12.5 7.173 80 45.914"
	 xml:space="preserve">
<g>
	<polygon fill="#2F3738" points="57.407,21.196 57.887,22.981 59.672,22.502 58.365,23.809 59.672,25.116 57.887,24.637 
		57.407,26.423 56.927,24.637 55.143,25.116 56.449,23.809 55.143,22.502 56.927,22.981 	"/>
	<g>
		<path fill="#2F3738" d="M44.905,53.087h-0.251c-3.845,0-7.062-1.298-9.652-3.892c-2.592-2.597-3.887-5.819-3.887-9.669v-2.951
			V20.816c0-1.381-0.494-2.564-1.482-3.548c-0.988-0.984-2.176-1.476-3.563-1.476c-1.429,0-2.638,0.482-3.626,1.445
			c-0.989,0.963-1.482,2.159-1.482,3.583v14.267c0,1.258-0.398,2.273-1.191,3.048c-0.793,0.775-1.817,1.162-3.071,1.162
			s-2.267-0.387-3.04-1.161c-0.773-0.775-1.159-1.79-1.159-3.046V20.833c0-3.81,1.305-7.013,3.917-9.608
			c2.611-2.597,5.818-3.894,9.621-3.894c3.802,0,7.01,1.297,9.622,3.893c2.612,2.595,3.917,5.796,3.917,9.605v18.71
			c0,1.422,0.491,2.627,1.474,3.61c0.981,0.982,2.183,1.476,3.604,1.476h0.251c1.254,0,2.277,0.396,3.071,1.191
			c0.794,0.793,1.191,1.817,1.191,3.07c0,1.254-0.397,2.267-1.191,3.041C47.182,52.702,46.158,53.087,44.905,53.087z"/>
		<path fill="#2F3738" d="M57.375,30.804c2.089,0,3.876-0.745,5.359-2.235c1.482-1.489,2.225-3.283,2.225-5.381
			c0-2.099-0.742-3.88-2.225-5.35c-1.484-1.469-3.271-2.202-5.359-2.202c-2.09,0-3.865,0.732-5.328,2.196
			c-1.463,1.466-2.193,3.244-2.193,5.336v24.55c0,1.255-0.397,2.283-1.19,3.077c-0.795,0.796-1.819,1.193-3.072,1.193
			c-1.254,0-2.267-0.397-3.04-1.192c-0.774-0.795-1.161-1.821-1.161-3.076V23.18c0-4.519,1.536-8.317,4.608-11.393
			c3.071-3.076,6.864-4.614,11.376-4.614s8.315,1.539,11.409,4.616c3.092,3.078,4.638,6.877,4.638,11.399
			c0,4.522-1.547,8.332-4.638,11.43c-3.094,3.099-6.896,4.647-11.409,4.647c-1.254,0-2.267-0.397-3.039-1.19
			c-0.775-0.793-1.159-1.818-1.159-3.07c0-1.254,0.385-2.267,1.159-3.04C55.108,31.191,56.121,30.804,57.375,30.804z"/>
		<path fill="#2F3738" d="M88.238,15.792c-2.091,0-3.866,0.739-5.328,2.216c-1.463,1.477-2.194,3.257-2.194,5.337
			c0,2.08,0.731,3.85,2.194,5.307c1.462,1.456,3.237,2.183,5.328,2.183c1.254,0,2.276,0.397,3.071,1.192
			c0.793,0.793,1.19,1.817,1.19,3.07s-0.397,2.268-1.19,3.04c-0.795,0.773-1.818,1.159-3.071,1.159
			c-4.472,0-8.253-1.543-11.347-4.629c-3.093-3.086-4.637-6.861-4.637-11.323c0-4.504,1.535-8.3,4.606-11.385
			c3.07-3.086,6.863-4.629,11.377-4.629c1.254,0,2.276,0.397,3.071,1.19c0.793,0.794,1.19,1.818,1.19,3.071s-0.397,2.268-1.19,3.041
			C90.515,15.406,89.492,15.792,88.238,15.792z"/>
	</g>
</g>
</svg>
