<svg xmlns="http://www.w3.org/2000/svg" width="25" height="55.258" viewBox="80.479 177.885 25 55.258"><path fill="#0f0" d="M92.979 233.143h8.383v-9.027h-1.091s.595-2.183-.942-4.266c0-1.488-.249-2.133-1.042-3.324-.794-1.19-4.762-8.185-3.423-9.871 1.339-1.686 1.687-1.835 1.687-2.629.645 0 1.24-.694.744-1.438v-1.091s.645-1.637-.546-1.637c0 0 0-1.141-1.29-1.24-.645-.694-1.438-2.282-.595-3.224.595.05 10.516-2.48 10.615-16.221 0 0-5.093-1.289-12.5-1.289s-12.5 1.289-12.5 1.289c.099 13.741 10.02 16.271 10.615 16.221.843.942.05 2.53-.595 3.224-1.29.099-1.29 1.24-1.29 1.24-1.19 0-.546 1.637-.546 1.637v1.091c-.496.744.1 1.438.744 1.438 0 .794.348.943 1.687 2.629 1.339 1.687-2.629 8.681-3.422 9.871-.794 1.191-1.042 1.836-1.042 3.324-1.538 2.083-.942 4.266-.942 4.266h-1.091v9.027h8.382z"/></svg>