<svg version="1.1" id="npcLogo" xmlns="http://www.w3.org/2000/svg" x="0" y="0" width="80" height="45.914" viewBox="12.5 7.173 80 45.914" xml:space="preserve"><g fill="#0F0"><path d="M57.407 21.196l.48 1.785 1.785-.479-1.307 1.307 1.307 1.307-1.785-.479-.48 1.786-.48-1.786-1.784.479 1.306-1.307-1.306-1.307 1.784.479zM44.905 53.087h-.251c-3.845 0-7.062-1.298-9.652-3.892-2.592-2.597-3.887-5.819-3.887-9.669v-18.71c0-1.381-.494-2.564-1.482-3.548s-2.176-1.476-3.563-1.476c-1.429 0-2.638.482-3.626 1.445-.989.963-1.482 2.159-1.482 3.583v14.267c0 1.258-.398 2.273-1.191 3.048-.793.775-1.817 1.162-3.071 1.162s-2.267-.387-3.04-1.161c-.773-.775-1.159-1.79-1.159-3.046V20.833c0-3.81 1.305-7.013 3.917-9.608 2.611-2.597 5.818-3.894 9.621-3.894 3.802 0 7.01 1.297 9.622 3.893 2.612 2.595 3.917 5.796 3.917 9.605v18.71c0 1.422.491 2.627 1.474 3.61.981.982 2.183 1.476 3.604 1.476h.251c1.254 0 2.277.396 3.071 1.191.794.793 1.191 1.817 1.191 3.07 0 1.254-.397 2.267-1.191 3.041-.796.775-1.82 1.16-3.073 1.16z"/><path d="M57.375 30.804c2.089 0 3.876-.745 5.359-2.235 1.482-1.489 2.225-3.283 2.225-5.381 0-2.099-.742-3.88-2.225-5.35-1.484-1.469-3.271-2.202-5.359-2.202-2.09 0-3.865.732-5.328 2.196-1.463 1.466-2.193 3.244-2.193 5.336v24.55c0 1.255-.397 2.283-1.19 3.077-.795.796-1.819 1.193-3.072 1.193-1.254 0-2.267-.397-3.04-1.192-.774-.795-1.161-1.821-1.161-3.076V23.18c0-4.519 1.536-8.317 4.608-11.393 3.071-3.076 6.864-4.614 11.376-4.614s8.315 1.539 11.409 4.616c3.092 3.078 4.638 6.877 4.638 11.399 0 4.522-1.547 8.332-4.638 11.43-3.094 3.099-6.896 4.647-11.409 4.647-1.254 0-2.267-.397-3.039-1.19-.775-.793-1.159-1.818-1.159-3.07 0-1.254.385-2.267 1.159-3.04.772-.774 1.785-1.161 3.039-1.161z"/><path d="M88.238 15.792c-2.091 0-3.866.739-5.328 2.216-1.463 1.477-2.194 3.257-2.194 5.337 0 2.08.731 3.85 2.194 5.307 1.462 1.456 3.237 2.183 5.328 2.183 1.254 0 2.276.397 3.071 1.192.793.793 1.19 1.817 1.19 3.07s-.397 2.268-1.19 3.04c-.795.773-1.818 1.159-3.071 1.159-4.472 0-8.253-1.543-11.347-4.629-3.093-3.086-4.637-6.861-4.637-11.323 0-4.504 1.535-8.3 4.606-11.385 3.07-3.086 6.863-4.629 11.377-4.629 1.254 0 2.276.397 3.071 1.19.793.794 1.19 1.818 1.19 3.071s-.397 2.268-1.19 3.041c-.793.774-1.816 1.16-3.07 1.16z"/></g></svg>